<?xml version="1.0" encoding="UTF-8" standalone="no"?>
<!-- Created with Inkscape (http://www.inkscape.org/) -->

<svg
   xmlns:dc="http://purl.org/dc/elements/1.1/"
   xmlns:cc="http://creativecommons.org/ns#"
   xmlns:rdf="http://www.w3.org/1999/02/22-rdf-syntax-ns#"
   xmlns:svg="http://www.w3.org/2000/svg"
   xmlns="http://www.w3.org/2000/svg"
   xmlns:sodipodi="http://sodipodi.sourceforge.net/DTD/sodipodi-0.dtd"
   xmlns:inkscape="http://www.inkscape.org/namespaces/inkscape"
   width="1000"
   height="1000"
   id="svg4356"
   version="1.1"
   inkscape:version="0.48.2 r9819"
   sodipodi:docname="Neues Dokument 6">
  <defs
     id="defs4358" />
  <sodipodi:namedview
     id="base"
     pagecolor="#ffffff"
     bordercolor="#666666"
     borderopacity="1.0"
     inkscape:pageopacity="0.0"
     inkscape:pageshadow="2"
     inkscape:zoom="0.5"
     inkscape:cx="129"
     inkscape:cy="382"
     inkscape:current-layer="layer1"
     inkscape:document-units="px"
     showgrid="false"
     inkscape:window-width="1680"
     inkscape:window-height="988"
     inkscape:window-x="-8"
     inkscape:window-y="-8"
     inkscape:window-maximized="1" />
  <metadata
     id="metadata4361">
    <rdf:RDF>
      <cc:Work
         rdf:about="">
        <dc:format>image/svg+xml</dc:format>
        <dc:type
           rdf:resource="http://purl.org/dc/dcmitype/StillImage" />
        <dc:title></dc:title>
      </cc:Work>
    </rdf:RDF>
  </metadata>
  <g
     id="layer1"
     inkscape:label="Layer 1"
     inkscape:groupmode="layer"
     transform="translate(0,232)">
    <path
       sodipodi:type="arc"
       style="fill:#00009f;fill-opacity:1;fill-rule:nonzero;stroke:none"
       id="path4364"
       sodipodi:cx="498"
       sodipodi:cy="498"
       sodipodi:rx="384"
       sodipodi:ry="384"
       d="m 882,498 a 384,384 0 1 1 -768,0 384,384 0 1 1 768,0 z"
       transform="translate(0,-232)" />
    <path
       style="fill:#ffab45;stroke:#000000;stroke-width:1px;stroke-linecap:butt;stroke-linejoin:miter;stroke-opacity:1;fill-opacity:1"
       d="m 286,192 -64,64 -38,62 34,120 102,120 10,86 c 0,0 58,-10 64,-18 6,-8 130,-142 130,-142 0,0 -48,-92 -34,-108 14,-16 48,-86 48,-86 0,0 -82,-70 -94,-74 -12,-4 -90,-32 -90,-32 z"
       id="path4874"
       inkscape:connector-curvature="0"
       transform="translate(0,-232)" />
    <path
       style="fill:#ffab45;stroke:#000000;stroke-width:1px;stroke-linecap:butt;stroke-linejoin:miter;stroke-opacity:1;fill-opacity:1"
       d="m 328,662 8,54 c 0,0 30,36 40,40 10,4 116,12 116,12 l 66,-4 42,74 -36,22 -66,14 -42,-6 -94,-26 -82,-44 -48,-52 -16,-62 44,16 z"
       id="path4876"
       inkscape:connector-curvature="0"
       transform="translate(0,-232)" />
    <path
       style="fill:#ffab45;stroke:#000000;stroke-width:1px;stroke-linecap:butt;stroke-linejoin:miter;stroke-opacity:1;fill-opacity:1"
       d="m 732,204 -46,48 4,52 c 0,0 40,16 36,32 -4,16 -20,102 -20,102 l -46,114 84,38 -34,98 62,22 32,-6 42,-64 26,-126 -20,-146 -52,-92 z"
       id="path4878"
       inkscape:connector-curvature="0"
       transform="translate(0,-232)" />
  </g>
</svg>
