<?xml version="1.0" encoding="UTF-8" standalone="no"?>
<!-- Created with Inkscape (http://www.inkscape.org/) -->

<svg
   xmlns:dc="http://purl.org/dc/elements/1.1/"
   xmlns:cc="http://creativecommons.org/ns#"
   xmlns:rdf="http://www.w3.org/1999/02/22-rdf-syntax-ns#"
   xmlns:svg="http://www.w3.org/2000/svg"
   xmlns="http://www.w3.org/2000/svg"
   xmlns:sodipodi="http://sodipodi.sourceforge.net/DTD/sodipodi-0.dtd"
   xmlns:inkscape="http://www.inkscape.org/namespaces/inkscape"
   width="1000"
   height="1000"
   id="svg4356"
   version="1.1"
   inkscape:version="0.48.2 r9819"
   sodipodi:docname="target_type_asteroid.svg">
  <defs
     id="defs4358" />
  <sodipodi:namedview
     id="base"
     pagecolor="#ffffff"
     bordercolor="#666666"
     borderopacity="1.0"
     inkscape:pageopacity="0.0"
     inkscape:pageshadow="2"
     inkscape:zoom="0.35355339"
     inkscape:cx="-314.34118"
     inkscape:cy="418.78483"
     inkscape:current-layer="layer1"
     inkscape:document-units="px"
     showgrid="false"
     inkscape:window-width="1680"
     inkscape:window-height="988"
     inkscape:window-x="-8"
     inkscape:window-y="-8"
     inkscape:window-maximized="1" />
  <metadata
     id="metadata4361">
    <rdf:RDF>
      <cc:Work
         rdf:about="">
        <dc:format>image/svg+xml</dc:format>
        <dc:type
           rdf:resource="http://purl.org/dc/dcmitype/StillImage" />
        <dc:title></dc:title>
      </cc:Work>
    </rdf:RDF>
  </metadata>
  <g
     id="layer1"
     inkscape:label="Layer 1"
     inkscape:groupmode="layer"
     transform="translate(0,232)">
    <path
       style="fill:#564124;fill-opacity:1;stroke:#000000;stroke-width:1px;stroke-linecap:butt;stroke-linejoin:miter;stroke-opacity:1"
       d="m 394,72 c 0,0 -92,42 -94,50 -2,8 -60,80 -62,100 -2,20 -50,132 -50,142 0,10 20,138 20,138 l -62,78 -50,64 8,120 70,60 126,62 136,-28 c 0,0 34,40 40,50 6,10 60,36 68,36 8,0 188,0 200,-8 12,-8 152,-130 152,-130 L 840,594 839.4386,476.64466 c 0,0 -59.7642,-46.94975 -59.7642,-54.94975 0,-8 -21.66301,-103.98208 -32.82159,-135.15075 C 732.56854,246.64466 692,214 682,192 672,170 618,122 618,122 L 524,68 z"
       id="path4913"
       inkscape:connector-curvature="0"
       sodipodi:nodetypes="cssscccccccssscccsssccc"
       transform="translate(0,-232)" />
    <path
       style="fill:#887139;stroke:#000000;stroke-width:1px;stroke-linecap:butt;stroke-linejoin:miter;stroke-opacity:1;fill-opacity:1"
       d="m 406,90 -78,54 c 0,0 -46,22 -48,32 -2,10 -32,104 -32,104 l -22,106 18,6 c 0,0 70,-116 78,-124 8,-8 68,-68 88,-78 20,-10 86,-58 108,-54 22,4 68,-16 68,-16 L 506,90 z"
       id="path4915"
       inkscape:connector-curvature="0"
       transform="translate(0,-232)" />
    <path
       style="fill:#887139;fill-opacity:1;stroke:#000000;stroke-width:0.91412735px;stroke-linecap:butt;stroke-linejoin:miter;stroke-opacity:1"
       d="M 220.57666,282 173.78144,334 132,410 l 15.04132,72 63.50779,80 26.74012,-96 c 0,0 48.46647,-42 55.1515,-42 6.68503,0 145.39942,-14 163.78325,-14 18.38384,0 68.52157,-8 68.52157,-8 0,0 6.68503,-46 18.38383,-58 11.69881,-12 68.52157,-34 68.52157,-34 l -73.53534,-12 -78.54911,44 -8.35629,20 -110.303,2 -71.86408,-34 z"
       id="path4917"
       inkscape:connector-curvature="0" />
    <path
       style="fill:#3e341a;fill-opacity:1;stroke:#000000;stroke-width:0.97038555px;stroke-linecap:butt;stroke-linejoin:miter;stroke-opacity:1"
       d="m 680.50993,11.653742 c 0,0 10.76791,81.069572 13.38794,95.198548 2.62004,14.12896 -10.14106,116.38846 -10.14106,116.38846 l -11.08573,101.23092 90.39619,-48.75272 40.43036,-45.05554 -49.30144,-57.41249 c 0,0 -13.24781,-57.06493 -14.70171,-76.406264 -1.45391,-19.341323 -5.3802,-66.391555 -11.4248,-71.673425 -6.04459,-5.28187 -47.55975,-13.517489 -47.55975,-13.517489 z"
       id="path4919"
       inkscape:connector-curvature="0" />
    <path
       style="fill:#3e341a;stroke:#000000;stroke-width:1px;stroke-linecap:butt;stroke-linejoin:miter;stroke-opacity:1;fill-opacity:1"
       d="m 742,544 40,50 12,90 -34,92 c 0,0 -62,36 -74,44 -12,8 -98,46 -98,46 l -72,-10 -66,-20 -46,-78 -64,72 -22,10 -52,12 -56,-24 80,50 154,-24 26,26 86,54 170,0 54,-38 102,-94 -46,-202 z"
       id="path4921"
       inkscape:connector-curvature="0"
       transform="translate(0,-232)" />
  </g>
</svg>
