<?xml version="1.0" encoding="UTF-8" standalone="no"?>
<!-- Created with Inkscape (http://www.inkscape.org/) -->

<svg
   xmlns:dc="http://purl.org/dc/elements/1.1/"
   xmlns:cc="http://creativecommons.org/ns#"
   xmlns:rdf="http://www.w3.org/1999/02/22-rdf-syntax-ns#"
   xmlns:svg="http://www.w3.org/2000/svg"
   xmlns="http://www.w3.org/2000/svg"
   xmlns:xlink="http://www.w3.org/1999/xlink"
   xmlns:sodipodi="http://sodipodi.sourceforge.net/DTD/sodipodi-0.dtd"
   xmlns:inkscape="http://www.inkscape.org/namespaces/inkscape"
   width="400"
   height="400"
   id="svg3821"
   version="1.1"
   inkscape:version="0.48.2 r9819"
   sodipodi:docname="target_circle.svg">
  <defs
     id="defs3823">
    <linearGradient
       id="linearGradient4489">
      <stop
         style="stop-color:#ff0000;stop-opacity:1;"
         offset="0"
         id="stop4491" />
      <stop
         id="stop4544"
         offset="1"
         style="stop-color:#7f597f;stop-opacity:0.49803922;" />
      <stop
         style="stop-color:#00b3ff;stop-opacity:0;"
         offset="1"
         id="stop4493" />
    </linearGradient>
    <linearGradient
       inkscape:collect="always"
       xlink:href="#linearGradient4489"
       id="linearGradient4495"
       x1="14.899751"
       y1="200"
       x2="60.104076"
       y2="190.64589"
       gradientUnits="userSpaceOnUse"
       spreadMethod="pad" />
    <linearGradient
       inkscape:collect="always"
       xlink:href="#linearGradient4489"
       id="linearGradient4536"
       x1="138.89598"
       y1="182.0647"
       x2="402.54578"
       y2="182.0647"
       gradientUnits="userSpaceOnUse" />
  </defs>
  <sodipodi:namedview
     id="base"
     pagecolor="#ffffff"
     bordercolor="#666666"
     borderopacity="1.0"
     inkscape:pageopacity="0.0"
     inkscape:pageshadow="2"
     inkscape:zoom="1.979899"
     inkscape:cx="83.357401"
     inkscape:cy="209.69229"
     inkscape:document-units="px"
     inkscape:current-layer="layer3"
     showgrid="false"
     showguides="true"
     inkscape:guide-bbox="true"
     inkscape:window-width="1680"
     inkscape:window-height="1028"
     inkscape:window-x="1672"
     inkscape:window-y="-8"
     inkscape:window-maximized="1">
    <sodipodi:guide
       orientation="0,1"
       position="201.42857,200"
       id="guide4339" />
    <sodipodi:guide
       orientation="1,0"
       position="200,180.71429"
       id="guide4341" />
  </sodipodi:namedview>
  <metadata
     id="metadata3826">
    <rdf:RDF>
      <cc:Work
         rdf:about="">
        <dc:format>image/svg+xml</dc:format>
        <dc:type
           rdf:resource="http://purl.org/dc/dcmitype/StillImage" />
        <dc:title />
      </cc:Work>
    </rdf:RDF>
  </metadata>
  <g
     inkscape:groupmode="layer"
     id="layer3"
     inkscape:label="circle"
     style="display:inline">
    <path
       sodipodi:type="arc"
       style="fill:none;stroke:#05e7fa;stroke-width:1.20000005;stroke-miterlimit:4;stroke-opacity:1;stroke-dasharray:none"
       id="path4352"
       sodipodi:cx="200"
       sodipodi:cy="200"
       sodipodi:rx="153.57143"
       sodipodi:ry="153.57143"
       d="m 353.57143,200 a 153.57143,153.57143 0 1 1 -307.142856,0 153.57143,153.57143 0 1 1 307.142856,0 z" />
    <path
       transform="matrix(1.078762,0,0,1.078762,-15.752405,-15.752409)"
       sodipodi:type="arc"
       style="fill:none;stroke:#05e7fa;stroke-width:9.26988506;stroke-miterlimit:4;stroke-opacity:1;stroke-dasharray:none;display:inline"
       id="path4352-1"
       sodipodi:cx="200"
       sodipodi:cy="200"
       sodipodi:rx="153.57143"
       sodipodi:ry="153.57143"
       d="m 353.57143,200 a 153.57143,153.57143 0 1 1 -307.142856,0 153.57143,153.57143 0 1 1 307.142856,0 z" />
    <path
       style="fill:#05e7fa;fill-opacity:1;stroke:none"
       mask="none"
       d="m 200,28.5625 c 0,0 57.14286,10.004464 95,35.71875 37.85714,25.714286 42.12947,41.44643 57.84375,67.875 15.71429,26.42857 17.875,67.84375 17.875,67.84375 l 5,-97.84375 c 0,0 3.57142,-13.589287 -20,-42.875 C 332.14732,29.995535 312.15625,28.5625 312.15625,28.5625 L 200,28.5625 z m 117.40625,12.75 c 5.12836,0 9.28125,4.152892 9.28125,9.28125 0,5.128358 -4.15289,9.28125 -9.28125,9.28125 -5.12836,0 -9.28125,-4.152892 -9.28125,-9.28125 0,-5.128358 4.15289,-9.28125 9.28125,-9.28125 z m 32.625,34.21875 c 5.12836,0 9.28125,4.184142 9.28125,9.3125 0,5.128358 -4.15289,9.28125 -9.28125,9.28125 -5.12836,0 -9.3125,-4.152892 -9.3125,-9.28125 0,-5.128358 4.18414,-9.3125 9.3125,-9.3125 z"
       id="path4380"
       inkscape:connector-curvature="0" />
  </g>
</svg>
