<?xml version="1.0" encoding="UTF-8" standalone="no"?>
<!-- Created with Inkscape (http://www.inkscape.org/) -->

<svg
   xmlns:dc="http://purl.org/dc/elements/1.1/"
   xmlns:cc="http://creativecommons.org/ns#"
   xmlns:rdf="http://www.w3.org/1999/02/22-rdf-syntax-ns#"
   xmlns:svg="http://www.w3.org/2000/svg"
   xmlns="http://www.w3.org/2000/svg"
   xmlns:sodipodi="http://sodipodi.sourceforge.net/DTD/sodipodi-0.dtd"
   xmlns:inkscape="http://www.inkscape.org/namespaces/inkscape"
   width="1000"
   height="1000"
   id="svg4356"
   version="1.1"
   inkscape:version="0.48.2 r9819"
   sodipodi:docname="target_type_ship.svg">
  <defs
     id="defs4358" />
  <sodipodi:namedview
     id="base"
     pagecolor="#ffffff"
     bordercolor="#666666"
     borderopacity="1.0"
     inkscape:pageopacity="0.0"
     inkscape:pageshadow="2"
     inkscape:zoom="0.5"
     inkscape:cx="129"
     inkscape:cy="382"
     inkscape:current-layer="layer1"
     inkscape:document-units="px"
     showgrid="false"
     inkscape:window-width="1680"
     inkscape:window-height="988"
     inkscape:window-x="-8"
     inkscape:window-y="-8"
     inkscape:window-maximized="1" />
  <metadata
     id="metadata4361">
    <rdf:RDF>
      <cc:Work
         rdf:about="">
        <dc:format>image/svg+xml</dc:format>
        <dc:type
           rdf:resource="http://purl.org/dc/dcmitype/StillImage" />
        <dc:title></dc:title>
      </cc:Work>
    </rdf:RDF>
  </metadata>
  <g
     id="layer1"
     inkscape:label="Layer 1"
     inkscape:groupmode="layer"
     transform="translate(0,232)">
    <path
       sodipodi:type="arc"
       style="fill:#2473e4;fill-opacity:1;fill-rule:nonzero;stroke:none"
       id="path4882"
       sodipodi:cx="563"
       sodipodi:cy="408"
       sodipodi:rx="179"
       sodipodi:ry="244"
       d="m 742,408 a 179,244 0 1 1 -358,0 179,244 0 1 1 358,0 z"
       transform="translate(-46,-282)" />
    <path
       style="fill:#83e424;fill-opacity:1;fill-rule:nonzero;stroke:none"
       d="M 345.375,210.28125 C 179.48576,240.59303 62,315.88913 62,404 62,518.87523 261.681,612 508,612 754.319,612 954,518.87523 954,404 954,319.15262 845.0439,246.16924 688.84375,213.8125 659.21568,239.89222 594.32008,258 519,258 440.30978,258 372.97721,238.25297 345.375,210.28125 z"
       id="path4880"
       inkscape:connector-curvature="0" />
    <path
       sodipodi:type="arc"
       style="fill:#e4e324;fill-opacity:1;fill-rule:nonzero;stroke:none"
       id="path4887"
       sodipodi:cx="96"
       sodipodi:cy="730"
       sodipodi:rx="50"
       sodipodi:ry="54"
       d="m 146,730 a 50,54 0 1 1 -100,0 50,54 0 1 1 100,0 z"
       transform="translate(-16,-294)" />
    <path
       sodipodi:type="arc"
       style="fill:#e4e324;fill-opacity:1;fill-rule:nonzero;stroke:none"
       id="path4891"
       sodipodi:cx="709"
       sodipodi:cy="867"
       sodipodi:rx="59"
       sodipodi:ry="63"
       d="m 768,867 a 59,63 0 1 1 -118,0 59,63 0 1 1 118,0 z"
       transform="translate(0,-288)" />
    <path
       sodipodi:type="arc"
       style="fill:#e4e324;fill-opacity:1;fill-rule:nonzero;stroke:none"
       id="path4893"
       sodipodi:cx="947"
       sodipodi:cy="716"
       sodipodi:rx="45"
       sodipodi:ry="54"
       d="m 992,716 a 45,54 0 1 1 -90,0 45,54 0 1 1 90,0 z"
       transform="translate(0,-288)" />
    <path
       transform="translate(-381,-289)"
       sodipodi:type="arc"
       style="fill:#e4e324;fill-opacity:1;fill-rule:nonzero;stroke:none"
       id="path4891-9"
       sodipodi:cx="709"
       sodipodi:cy="867"
       sodipodi:rx="59"
       sodipodi:ry="63"
       d="m 768,867 a 59,63 0 1 1 -118,0 59,63 0 1 1 118,0 z" />
  </g>
</svg>
